<?xml version="1.0" encoding="UTF-8"?>
<?xml-model href="https://raw.githubusercontent.com/Thiago-Morais/DecentSampler-schema/refs/heads/development/DecentSampler.xsd"?>
<DecentSampler>
	<effects>
		<effect type="highpass" frequency="100.0" />
		<effect type="chorus" mix="0.1377191245555878" modDepth="0.2" modRate="0.2" />
		<effect type="delay" delayTimeFormat="musical_time" delayTime="10" stereoOffset="0.01" feedback="0.3" wetLevel="0.5" />
		<effect type="reverb" wetLevel="1.0" />
		<effect type="gain" level="0" />
	</effects>
	<ui width="812" height="375" bgImage="Resources/Images/Tuba.png">
		<tab name="main">
			<labeled-knob x="565" y="25" width="90" textSize="20" textColor="FF000000" trackForegroundColor="CC000000" trackBackgroundColor="66999999" label="Attack" type="float" minValue="0.0" maxValue="4.0" value="0.01">
				<binding type="amp" level="instrument" position="0" parameter="ENV_ATTACK" />
			</labeled-knob>
			<labeled-knob x="635" y="25" width="90" textSize="20" textColor="FF000000" trackForegroundColor="CC000000" trackBackgroundColor="66999999" label="Release" type="float" minValue="0.0" maxValue="20.0" value="0.16">
				<binding type="amp" level="instrument" position="0" parameter="ENV_RELEASE" />
			</labeled-knob>
			<labeled-knob x="705" y="25" width="90" textSize="20" textColor="FF000000" trackForegroundColor="CC000000" trackBackgroundColor="66999999" label="Highpass" type="float" minValue="0" maxValue="1" value="0">
				<binding type="effect" level="instrument" position="0" parameter="FX_FILTER_FREQUENCY" translation="table" translationTable="0,33;0.3,150;0.4,450;0.5,1100;0.7,4100;0.9,11000;11,22000" />
			</labeled-knob>
			<labeled-knob x="565" y="115" width="90" textSize="20" textColor="FF000000" trackForegroundColor="CC000000" trackBackgroundColor="66999999" label="Chorus" type="float" minValue="0.0" maxValue="1" value="0">
				<binding type="effect" level="instrument" position="1" parameter="FX_MIX" />
			</labeled-knob>
			<labeled-knob x="635" y="115" width="90" textSize="20" textColor="FF000000" trackForegroundColor="CC000000" trackBackgroundColor="66999999" label="Delay" type="musical_time" minValue="0" maxValue="20" value="0" defaultValue="0">
				<binding type="effect" level="instrument" position="2" parameter="FX_DELAY_TIME" />
			</labeled-knob>
			<labeled-knob x="705" y="115" width="90" textSize="20" textColor="FF000000" trackForegroundColor="CC000000" trackBackgroundColor="66999999" label="Reverb" type="float" minValue="0.0" maxValue="1" value="0">
				<binding type="effect" level="instrument" position="3" parameter="FX_REVERB_WET_LEVEL" />
			</labeled-knob>
		</tab>
		<keyboard />
	</ui>
	<groups attack="0" release="0.028">
		<group name="Stac RR 1" ampVelTrack="1">
			<sample end="41219" hiNote="64" hiVel="127" loNote="60" loVel="97" path="Resources/Tuba - Ensemble Samples/Tuba3_stac_D3_v2_rr1_Sum.wav" rootNote="62" volume="5.85730903073885dB" />
			<sample end="34275" hiNote="59" hiVel="127" loNote="56" loVel="97" path="Resources/Tuba - Ensemble Samples/Tuba3_stac_A#2_v2_rr1_Sum.wav" rootNote="58" volume="5.85730903073885dB" />
			<sample end="43630" hiNote="55" hiVel="127" loNote="52" loVel="97" path="Resources/Tuba - Ensemble Samples/Tuba3_stac_F2_v2_rr1_Sum.wav" rootNote="53" volume="5.85730903073885dB" />
			<sample end="31385" hiNote="51" hiVel="127" loNote="48" loVel="97" path="Resources/Tuba - Ensemble Samples/Tuba3_stac_D2_v2_rr1_Sum.wav" rootNote="50" volume="5.85730903073885dB" />
			<sample end="41892" hiNote="47" hiVel="127" loNote="44" loVel="97" path="Resources/Tuba - Ensemble Samples/Tuba3_stac_A#1_v2_rr1_Sum.wav" rootNote="46" volume="5.85730903073885dB" />
			<sample end="42469" hiNote="43" hiVel="127" loNote="40" loVel="97" path="Resources/Tuba - Ensemble Samples/Tuba3_stac_F1_v2_rr1_Sum.wav" rootNote="41" volume="5.85730903073885dB" />
			<sample end="56803" hiNote="39" hiVel="127" loNote="37" loVel="97" path="Resources/Tuba - Ensemble Samples/Tuba3_stac_D#1_v2_rr1_Sum.wav" rootNote="39" volume="5.85730903073885dB" />
			<sample end="38059" hiNote="36" hiVel="127" loNote="29" loVel="97" path="Resources/Tuba - Ensemble Samples/Tuba3_stac_A#0_v2_rr1_Sum.wav" rootNote="34" volume="5.85730903073885dB" />
			<sample end="25483" hiNote="64" hiVel="96" loNote="60" loVel="1" path="Resources/Tuba - Ensemble Samples/Tuba3_stac_D3_v1_rr1_Sum.wav" rootNote="62" volume="5.85730903073885dB" />
			<sample end="33078" hiNote="59" hiVel="96" loNote="56" loVel="1" path="Resources/Tuba - Ensemble Samples/Tuba3_stac_A#2_v1_rr1_Sum.wav" rootNote="58" volume="5.85730903073885dB" />
			<sample end="28144" hiNote="55" hiVel="96" loNote="52" loVel="1" path="Resources/Tuba - Ensemble Samples/Tuba3_stac_F2_v1_rr1_Sum.wav" rootNote="53" volume="5.85730903073885dB" />
			<sample end="28080" hiNote="51" hiVel="96" loNote="48" loVel="1" path="Resources/Tuba - Ensemble Samples/Tuba3_stac_D2_v1_rr1_Sum.wav" rootNote="50" volume="5.85730903073885dB" />
			<sample end="27167" hiNote="47" hiVel="96" loNote="44" loVel="1" path="Resources/Tuba - Ensemble Samples/Tuba3_stac_A#1_v1_rr1_Sum.wav" rootNote="46" volume="5.85730903073885dB" />
			<sample end="36677" hiNote="43" hiVel="96" loNote="40" loVel="1" path="Resources/Tuba - Ensemble Samples/Tuba3_stac_F1_v1_rr1_Sum.wav" rootNote="41" volume="5.85730903073885dB" />
			<sample end="48095" hiNote="39" hiVel="96" loNote="37" loVel="1" path="Resources/Tuba - Ensemble Samples/Tuba3_stac_D#1_v1_rr1_Sum.wav" rootNote="39" volume="5.85730903073885dB" />
			<sample end="34670" hiNote="36" hiVel="96" loNote="29" loVel="1" path="Resources/Tuba - Ensemble Samples/Tuba3_stac_A#0_v1_rr1_Sum.wav" rootNote="34" volume="5.85730903073885dB" />
		</group>
		<group name="Stac RR 2" ampVelTrack="1">
			<sample end="43099" hiNote="64" hiVel="127" loNote="60" loVel="97" path="Resources/Tuba - Ensemble Samples/Tuba3_stac_D3_v2_rr2_Sum.wav" rootNote="62" volume="5.85730903073885dB" />
			<sample end="33971" hiNote="59" hiVel="127" loNote="56" loVel="97" path="Resources/Tuba - Ensemble Samples/Tuba3_stac_A#2_v2_rr2_Sum.wav" rootNote="58" volume="5.85730903073885dB" />
			<sample end="36393" hiNote="55" hiVel="127" loNote="52" loVel="97" path="Resources/Tuba - Ensemble Samples/Tuba3_stac_F2_v2_rr2_Sum.wav" rootNote="53" volume="5.85730903073885dB" />
			<sample end="31960" hiNote="51" hiVel="127" loNote="48" loVel="97" path="Resources/Tuba - Ensemble Samples/Tuba3_stac_D2_v2_rr2_Sum.wav" rootNote="50" volume="5.85730903073885dB" />
			<sample end="46405" hiNote="47" hiVel="127" loNote="44" loVel="97" path="Resources/Tuba - Ensemble Samples/Tuba3_stac_A#1_v2_rr2_Sum.wav" rootNote="46" volume="5.85730903073885dB" />
			<sample end="36718" hiNote="43" hiVel="127" loNote="40" loVel="97" path="Resources/Tuba - Ensemble Samples/Tuba3_stac_F1_v2_rr2_Sum.wav" rootNote="41" volume="5.85730903073885dB" />
			<sample end="41503" hiNote="39" hiVel="127" loNote="37" loVel="97" path="Resources/Tuba - Ensemble Samples/Tuba3_stac_D#1_v2_rr2_Sum.wav" rootNote="39" volume="5.85730903073885dB" />
			<sample end="33681" hiNote="36" hiVel="127" loNote="29" loVel="97" path="Resources/Tuba - Ensemble Samples/Tuba3_stac_A#0_v2_rr2_Sum.wav" rootNote="34" volume="5.85730903073885dB" />
			<sample end="41219" hiNote="64" hiVel="96" loNote="60" loVel="1" path="Resources/Tuba - Ensemble Samples/Tuba3_stac_D3_v2_rr1_Sum.wav" rootNote="62" volume="5.85730903073885dB" />
			<sample end="34275" hiNote="59" hiVel="96" loNote="56" loVel="1" path="Resources/Tuba - Ensemble Samples/Tuba3_stac_A#2_v2_rr1_Sum.wav" rootNote="58" volume="5.85730903073885dB" />
			<sample end="43630" hiNote="55" hiVel="96" loNote="52" loVel="1" path="Resources/Tuba - Ensemble Samples/Tuba3_stac_F2_v2_rr1_Sum.wav" rootNote="53" volume="5.85730903073885dB" />
			<sample end="31385" hiNote="51" hiVel="96" loNote="48" loVel="1" path="Resources/Tuba - Ensemble Samples/Tuba3_stac_D2_v2_rr1_Sum.wav" rootNote="50" volume="5.85730903073885dB" />
			<sample end="41892" hiNote="47" hiVel="96" loNote="44" loVel="1" path="Resources/Tuba - Ensemble Samples/Tuba3_stac_A#1_v2_rr1_Sum.wav" rootNote="46" volume="5.85730903073885dB" />
			<sample end="42469" hiNote="43" hiVel="96" loNote="40" loVel="1" path="Resources/Tuba - Ensemble Samples/Tuba3_stac_F1_v2_rr1_Sum.wav" rootNote="41" volume="5.85730903073885dB" />
			<sample end="56803" hiNote="39" hiVel="96" loNote="37" loVel="1" path="Resources/Tuba - Ensemble Samples/Tuba3_stac_D#1_v2_rr1_Sum.wav" rootNote="39" volume="5.85730903073885dB" />
			<sample end="38059" hiNote="36" hiVel="96" loNote="29" loVel="1" path="Resources/Tuba - Ensemble Samples/Tuba3_stac_A#0_v2_rr1_Sum.wav" rootNote="34" volume="5.85730903073885dB" />
		</group>
		<group name="Sus Non Vib" ampVelTrack="1">
			<sample end="243337" hiNote="59" hiVel="127" loNote="56" loVel="97" path="Resources/Tuba - Ensemble Samples/Tuba3_sus_A#2_v3_rr1_Mid.wav" rootNote="58" volume="5.85730903073885dB" />
			<sample end="159877" hiNote="55" hiVel="127" loNote="52" loVel="97" path="Resources/Tuba - Ensemble Samples/Tuba3_sus_F2_v3_rr1_Mid.wav" rootNote="53" volume="5.85730903073885dB" />
			<sample end="200940" hiNote="51" hiVel="127" loNote="48" loVel="97" path="Resources/Tuba - Ensemble Samples/Tuba3_sus_D2_v3_rr1_Mid.wav" rootNote="50" start="670" volume="5.85730903073885dB" />
			<sample end="191154" hiNote="47" hiVel="127" loNote="44" loVel="97" path="Resources/Tuba - Ensemble Samples/Tuba3_sus_A#1_v3_rr1_Mid.wav" rootNote="46" volume="5.85730903073885dB" />
			<sample end="142274" hiNote="43" hiVel="127" loNote="40" loVel="97" path="Resources/Tuba - Ensemble Samples/Tuba3_sus_F1_v3_rr1_Mid.wav" rootNote="41" volume="5.85730903073885dB" />
			<sample end="152122" hiNote="39" hiVel="127" loNote="37" loVel="97" path="Resources/Tuba - Ensemble Samples/Tuba3_sus_D#1_v3_rr1_Mid.wav" rootNote="39" volume="5.85730903073885dB" />
			<sample end="178090" hiNote="36" hiVel="127" loNote="32" loVel="97" path="Resources/Tuba - Ensemble Samples/Tuba3_sus_A#0_v3_rr1_Mid.wav" rootNote="34" volume="5.85730903073885dB" />
			<sample end="431669" hiNote="59" hiVel="96" loNote="56" loVel="49" path="Resources/Tuba - Ensemble Samples/Tuba3_sus_A#2_v2_rr1_Mid.wav" rootNote="58" volume="5.85730903073885dB" />
			<sample end="516315" hiNote="55" hiVel="96" loNote="52" loVel="49" path="Resources/Tuba - Ensemble Samples/Tuba3_sus_F2_v2_rr1_Mid.wav" rootNote="53" volume="5.85730903073885dB" />
			<sample end="540363" hiNote="51" hiVel="96" loNote="48" loVel="49" path="Resources/Tuba - Ensemble Samples/Tuba3_sus_D2_v2_rr1_Mid.wav" rootNote="50" start="795" volume="5.85730903073885dB" />
			<sample end="355782" hiNote="47" hiVel="96" loNote="44" loVel="49" path="Resources/Tuba - Ensemble Samples/Tuba3_sus_A#1_v2_rr1_Mid.wav" rootNote="46" volume="5.85730903073885dB" />
			<sample end="291664" hiNote="43" hiVel="96" loNote="40" loVel="49" path="Resources/Tuba - Ensemble Samples/Tuba3_sus_F1_v2_rr1_Mid.wav" rootNote="41" volume="5.85730903073885dB" />
			<sample end="281423" hiNote="39" hiVel="96" loNote="37" loVel="49" path="Resources/Tuba - Ensemble Samples/Tuba3_sus_D#1_v2_rr1_Mid.wav" rootNote="39" volume="5.85730903073885dB" />
			<sample end="328484" hiNote="36" hiVel="96" loNote="32" loVel="49" path="Resources/Tuba - Ensemble Samples/Tuba3_sus_A#0_v2_rr1_Mid.wav" rootNote="34" volume="5.85730903073885dB" />
			<sample end="175454" hiNote="31" hiVel="127" loNote="29" loVel="1" path="Resources/Tuba - Ensemble Samples/Tuba3_sus_F0_v1_rr1_Mid.wav" rootNote="29" volume="5.85730903073885dB" />
			<sample end="421623" hiNote="64" hiVel="127" loNote="60" loVel="1" path="Resources/Tuba - Ensemble Samples/Tuba3_sus_D3_v1_rr1_Mid.wav" rootNote="62" volume="5.85730903073885dB" />
			<sample end="316038" hiNote="59" hiVel="48" loNote="56" loVel="1" path="Resources/Tuba - Ensemble Samples/Tuba3_sus_A#2_v1_rr1_Mid.wav" rootNote="58" volume="5.85730903073885dB" />
			<sample end="755177" hiNote="55" hiVel="48" loNote="52" loVel="1" path="Resources/Tuba - Ensemble Samples/Tuba3_sus_F2_v1_rr1_Mid.wav" rootNote="53" volume="5.85730903073885dB" />
			<sample end="559464" hiNote="51" hiVel="48" loNote="46" loVel="1" path="Resources/Tuba - Ensemble Samples/Tuba3_sus_D2_v1_rr1_Mid.wav" rootNote="50" volume="5.85730903073885dB" />
			<sample end="427996" hiNote="45" hiVel="48" loNote="40" loVel="1" loopEnabled="true" loopEnd="427996" loopStart="2110" path="Resources/Tuba - Ensemble Samples/Tuba3_sus_F1_v1_rr1_Mid.wav" rootNote="41" volume="5.85730903073885dB" />
			<sample end="347113" hiNote="39" hiVel="48" loNote="37" loVel="1" path="Resources/Tuba - Ensemble Samples/Tuba3_sus_D#1_v1_rr1_Mid.wav" rootNote="39" volume="5.85730903073885dB" />
			<sample end="354117" hiNote="36" hiVel="48" loNote="32" loVel="1" path="Resources/Tuba - Ensemble Samples/Tuba3_sus_A#0_v1_rr1_Mid.wav" rootNote="34" volume="5.85730903073885dB" />
		</group>
		<group name="Sus Non Vib Loud" ampVelTrack="1">
			<sample end="243337" hiNote="59" hiVel="127" loNote="56" loVel="1" path="Resources/Tuba - Ensemble Samples/Tuba3_sus_A#2_v3_rr1_Mid.wav" rootNote="58" volume="5.85730903073885dB" />
			<sample end="159877" hiNote="55" hiVel="127" loNote="52" loVel="1" path="Resources/Tuba - Ensemble Samples/Tuba3_sus_F2_v3_rr1_Mid.wav" rootNote="53" volume="5.85730903073885dB" />
			<sample end="200940" hiNote="51" hiVel="127" loNote="48" loVel="1" path="Resources/Tuba - Ensemble Samples/Tuba3_sus_D2_v3_rr1_Mid.wav" rootNote="50" volume="5.85730903073885dB" />
			<sample end="191154" hiNote="47" hiVel="127" loNote="44" loVel="1" path="Resources/Tuba - Ensemble Samples/Tuba3_sus_A#1_v3_rr1_Mid.wav" rootNote="46" volume="5.85730903073885dB" />
			<sample end="142274" hiNote="43" hiVel="127" loNote="40" loVel="1" path="Resources/Tuba - Ensemble Samples/Tuba3_sus_F1_v3_rr1_Mid.wav" rootNote="41" volume="5.85730903073885dB" />
			<sample end="152122" hiNote="39" hiVel="127" loNote="37" loVel="1" path="Resources/Tuba - Ensemble Samples/Tuba3_sus_D#1_v3_rr1_Mid.wav" rootNote="39" volume="5.85730903073885dB" />
			<sample end="178090" hiNote="36" hiVel="127" loNote="32" loVel="1" path="Resources/Tuba - Ensemble Samples/Tuba3_sus_A#0_v3_rr1_Mid.wav" rootNote="34" volume="5.85730903073885dB" />
			<sample end="175454" hiNote="31" hiVel="127" loNote="29" loVel="1" path="Resources/Tuba - Ensemble Samples/Tuba3_sus_F0_v1_rr1_Mid.wav" rootNote="29" volume="5.85730903073885dB" />
			<sample end="421623" hiNote="64" hiVel="127" loNote="60" loVel="1" path="Resources/Tuba - Ensemble Samples/Tuba3_sus_D3_v1_rr1_Mid.wav" rootNote="62" volume="5.85730903073885dB" />
		</group>
		<group name="Sus Non Vib Soft" ampVelTrack="1">
			<sample end="175454" hiNote="31" hiVel="127" loNote="29" loVel="1" path="Resources/Tuba - Ensemble Samples/Tuba3_sus_F0_v1_rr1_Mid.wav" rootNote="29" volume="5.85730903073885dB" />
			<sample end="421623" hiNote="64" hiVel="127" loNote="60" loVel="1" path="Resources/Tuba - Ensemble Samples/Tuba3_sus_D3_v1_rr1_Mid.wav" rootNote="62" volume="5.85730903073885dB" />
			<sample end="316038" hiNote="59" hiVel="127" loNote="56" loVel="1" path="Resources/Tuba - Ensemble Samples/Tuba3_sus_A#2_v1_rr1_Mid.wav" rootNote="58" volume="5.85730903073885dB" />
			<sample end="755177" hiNote="55" hiVel="127" loNote="52" loVel="1" path="Resources/Tuba - Ensemble Samples/Tuba3_sus_F2_v1_rr1_Mid.wav" rootNote="53" volume="5.85730903073885dB" />
			<sample end="559464" hiNote="51" hiVel="127" loNote="46" loVel="1" path="Resources/Tuba - Ensemble Samples/Tuba3_sus_D2_v1_rr1_Mid.wav" rootNote="50" volume="5.85730903073885dB" />
			<sample end="427996" hiNote="45" hiVel="127" loNote="40" loVel="1" loopEnabled="true" loopEnd="427996" loopStart="2110" path="Resources/Tuba - Ensemble Samples/Tuba3_sus_F1_v1_rr1_Mid.wav" rootNote="41" volume="5.85730903073885dB" />
			<sample end="347113" hiNote="39" hiVel="127" loNote="37" loVel="1" path="Resources/Tuba - Ensemble Samples/Tuba3_sus_D#1_v1_rr1_Mid.wav" rootNote="39" volume="5.85730903073885dB" />
			<sample end="354117" hiNote="36" hiVel="127" loNote="32" loVel="1" path="Resources/Tuba - Ensemble Samples/Tuba3_sus_A#0_v1_rr1_Mid.wav" rootNote="34" volume="5.85730903073885dB" />
		</group>
		<group name="Stac RR 3" ampVelTrack="1">
			<sample end="28331" hiNote="64" hiVel="127" loNote="60" loVel="97" path="Resources/Tuba - Ensemble Samples/Tuba3_stac_D3_v2_rr3_Sum.wav" rootNote="62" volume="5.85730903073885dB" />
			<sample end="37498" hiNote="59" hiVel="127" loNote="56" loVel="97" path="Resources/Tuba - Ensemble Samples/Tuba3_stac_A#2_v2_rr3_Sum.wav" rootNote="58" volume="5.85730903073885dB" />
			<sample end="37118" hiNote="55" hiVel="127" loNote="52" loVel="97" path="Resources/Tuba - Ensemble Samples/Tuba3_stac_F2_v2_rr3_Sum.wav" rootNote="53" volume="5.85730903073885dB" />
			<sample end="32475" hiNote="51" hiVel="127" loNote="48" loVel="97" path="Resources/Tuba - Ensemble Samples/Tuba3_stac_D2_v2_rr3_Sum.wav" rootNote="50" volume="5.85730903073885dB" />
			<sample end="37657" hiNote="47" hiVel="127" loNote="44" loVel="97" path="Resources/Tuba - Ensemble Samples/Tuba3_stac_A#1_v2_rr3_Sum.wav" rootNote="46" volume="5.85730903073885dB" />
			<sample end="53846" hiNote="43" hiVel="127" loNote="40" loVel="97" path="Resources/Tuba - Ensemble Samples/Tuba3_stac_F1_v2_rr3_Sum.wav" rootNote="41" volume="5.85730903073885dB" />
			<sample end="43255" hiNote="39" hiVel="127" loNote="37" loVel="97" path="Resources/Tuba - Ensemble Samples/Tuba3_stac_D#1_v2_rr3_Sum.wav" rootNote="39" volume="5.85730903073885dB" />
			<sample end="34656" hiNote="36" hiVel="127" loNote="29" loVel="97" path="Resources/Tuba - Ensemble Samples/Tuba3_stac_A#0_v2_rr3_Sum.wav" rootNote="34" volume="5.85730903073885dB" />
			<sample end="25876" hiNote="64" hiVel="96" loNote="60" loVel="1" path="Resources/Tuba - Ensemble Samples/Tuba3_stac_D3_v1_rr3_Sum.wav" rootNote="62" volume="5.85730903073885dB" />
			<sample end="32177" hiNote="59" hiVel="96" loNote="56" loVel="1" path="Resources/Tuba - Ensemble Samples/Tuba3_stac_A#2_v1_rr3_Sum.wav" rootNote="58" volume="5.85730903073885dB" />
			<sample end="26446" hiNote="55" hiVel="96" loNote="52" loVel="1" path="Resources/Tuba - Ensemble Samples/Tuba3_stac_F2_v1_rr3_Sum.wav" rootNote="53" volume="5.85730903073885dB" />
			<sample end="30163" hiNote="51" hiVel="96" loNote="48" loVel="1" path="Resources/Tuba - Ensemble Samples/Tuba3_stac_D2_v1_rr3_Sum.wav" rootNote="50" volume="5.85730903073885dB" />
			<sample end="27270" hiNote="47" hiVel="96" loNote="44" loVel="1" path="Resources/Tuba - Ensemble Samples/Tuba3_stac_A#1_v1_rr3_Sum.wav" rootNote="46" volume="5.85730903073885dB" />
			<sample end="36436" hiNote="43" hiVel="96" loNote="40" loVel="1" path="Resources/Tuba - Ensemble Samples/Tuba3_stac_F1_v1_rr3_Sum.wav" rootNote="41" volume="5.85730903073885dB" />
			<sample end="25619" hiNote="39" hiVel="96" loNote="37" loVel="1" path="Resources/Tuba - Ensemble Samples/Tuba3_stac_D#1_v1_rr3_Sum.wav" rootNote="39" volume="5.85730903073885dB" />
			<sample end="40150" hiNote="36" hiVel="96" loNote="29" loVel="1" path="Resources/Tuba - Ensemble Samples/Tuba3_stac_A#0_v1_rr3_Sum.wav" rootNote="34" volume="5.85730903073885dB" />
		</group>
		<group name="Stac RR 4" ampVelTrack="1">
			<sample end="33478" hiNote="64" hiVel="127" loNote="60" loVel="97" path="Resources/Tuba - Ensemble Samples/Tuba3_stac_D3_v2_rr4_Sum.wav" rootNote="62" volume="5.85730903073885dB" />
			<sample end="34126" hiNote="59" hiVel="127" loNote="56" loVel="97" path="Resources/Tuba - Ensemble Samples/Tuba3_stac_A#2_v2_rr4_Sum.wav" rootNote="58" volume="5.85730903073885dB" />
			<sample end="54287" hiNote="55" hiVel="127" loNote="52" loVel="97" path="Resources/Tuba - Ensemble Samples/Tuba3_stac_F2_v2_rr4_Sum.wav" rootNote="53" volume="5.85730903073885dB" />
			<sample end="30579" hiNote="51" hiVel="127" loNote="48" loVel="97" path="Resources/Tuba - Ensemble Samples/Tuba3_stac_D2_v2_rr4_Sum.wav" rootNote="50" volume="5.85730903073885dB" />
			<sample end="36630" hiNote="47" hiVel="127" loNote="44" loVel="97" path="Resources/Tuba - Ensemble Samples/Tuba3_stac_A#1_v2_rr4_Sum.wav" rootNote="46" volume="5.85730903073885dB" />
			<sample end="41961" hiNote="43" hiVel="127" loNote="40" loVel="97" path="Resources/Tuba - Ensemble Samples/Tuba3_stac_F1_v2_rr4_Sum.wav" rootNote="41" volume="5.85730903073885dB" />
			<sample end="39541" hiNote="39" hiVel="127" loNote="37" loVel="97" path="Resources/Tuba - Ensemble Samples/Tuba3_stac_D#1_v2_rr4_Sum.wav" rootNote="39" volume="5.85730903073885dB" />
			<sample end="32648" hiNote="36" hiVel="127" loNote="29" loVel="97" path="Resources/Tuba - Ensemble Samples/Tuba3_stac_A#0_v2_rr4_Sum.wav" rootNote="34" volume="5.85730903073885dB" />
			<sample end="42063" hiNote="64" hiVel="96" loNote="60" loVel="1" path="Resources/Tuba - Ensemble Samples/Tuba3_stac_D3_v1_rr4_Sum.wav" rootNote="62" volume="5.85730903073885dB" />
			<sample end="34711" hiNote="59" hiVel="96" loNote="56" loVel="1" path="Resources/Tuba - Ensemble Samples/Tuba3_stac_A#2_v1_rr4_Sum.wav" rootNote="58" volume="5.85730903073885dB" />
			<sample end="30037" hiNote="55" hiVel="96" loNote="52" loVel="1" path="Resources/Tuba - Ensemble Samples/Tuba3_stac_F2_v1_rr4_Sum.wav" rootNote="53" volume="5.85730903073885dB" />
			<sample end="45715" hiNote="51" hiVel="96" loNote="48" loVel="1" path="Resources/Tuba - Ensemble Samples/Tuba3_stac_D2_v1_rr4_Sum.wav" rootNote="50" volume="5.85730903073885dB" />
			<sample end="26917" hiNote="47" hiVel="96" loNote="44" loVel="1" path="Resources/Tuba - Ensemble Samples/Tuba3_stac_A#1_v1_rr4_Sum.wav" rootNote="46" volume="5.85730903073885dB" />
			<sample end="48303" hiNote="43" hiVel="96" loNote="40" loVel="1" path="Resources/Tuba - Ensemble Samples/Tuba3_stac_F1_v1_rr4_Sum.wav" rootNote="41" volume="5.85730903073885dB" />
			<sample end="29461" hiNote="39" hiVel="96" loNote="37" loVel="1" path="Resources/Tuba - Ensemble Samples/Tuba3_stac_D#1_v1_rr4_Sum.wav" rootNote="39" volume="5.85730903073885dB" />
			<sample end="49825" hiNote="36" hiVel="96" loNote="29" loVel="1" path="Resources/Tuba - Ensemble Samples/Tuba3_stac_A#0_v1_rr4_Sum.wav" rootNote="34" volume="5.85730903073885dB" />
		</group>
	</groups>
	<midi>
		<cc number="1">
			<binding type="effect" level="instrument" position="4" parameter="LEVEL" translation="linear" translationOutputMin="-30" translationOutputMax="0" />
		</cc>
	</midi>
	<modulators />
</DecentSampler>
